<svg xmlns="http://www.w3.org/2000/svg" viewBox="0 0 1024 1024" width="1024" height="1024" role="img" aria-label="neuink logo">
  <path d="M 70.0 702.0 L 99.0 758.0 L 145.0 749.0 L 187.0 745.0 L 257.0 746.0 L 329.0 756.0 L 387.0 773.0 L 430.0 792.0 L 476.0 821.0 L 512.0 852.0 L 549.0 821.0 L 595.0 792.0 L 638.0 773.0 L 697.0 756.0 L 768.0 746.0 L 839.0 745.0 L 886.0 750.0 L 926.0 758.0 L 955.0 704.0 L 951.0 701.0 L 895.0 695.0 L 823.0 693.0 L 755.0 699.0 L 701.0 710.0 L 648.0 728.0 L 624.0 739.0 L 592.0 757.0 L 550.0 788.0 L 512.0 825.0 L 470.0 784.0 L 431.0 756.0 L 374.0 727.0 L 320.0 709.0 L 270.0 699.0 L 200.0 693.0 L 142.0 694.0 Z M 928.0 664.0 L 907.0 626.0 L 903.0 622.0 L 847.0 622.0 L 812.0 625.0 L 752.0 636.0 L 715.0 647.0 L 691.0 656.0 L 654.0 674.0 L 611.0 702.0 L 565.0 745.0 L 546.0 768.0 L 524.0 802.0 L 528.0 800.0 L 537.0 788.0 L 560.0 765.0 L 596.0 736.0 L 637.0 711.0 L 687.0 689.0 L 715.0 680.0 L 753.0 671.0 L 797.0 665.0 L 862.0 662.0 L 928.0 667.0 Z M 96.0 666.0 L 102.0 667.0 L 123.0 664.0 L 163.0 662.0 L 218.0 664.0 L 282.0 673.0 L 338.0 689.0 L 386.0 710.0 L 429.0 736.0 L 466.0 766.0 L 500.0 802.0 L 492.0 787.0 L 471.0 758.0 L 455.0 740.0 L 422.0 709.0 L 401.0 693.0 L 367.0 672.0 L 347.0 662.0 L 304.0 645.0 L 264.0 634.0 L 220.0 626.0 L 174.0 622.0 L 121.0 622.0 Z M 137.0 590.0 L 137.0 592.0 L 191.0 592.0 L 235.0 596.0 L 281.0 605.0 L 321.0 617.0 L 376.0 642.0 L 406.0 661.0 L 433.0 683.0 L 459.0 711.0 L 465.0 715.0 L 456.0 634.0 L 446.0 593.0 L 436.0 567.0 L 426.0 548.0 L 399.0 514.0 L 447.0 419.0 L 482.0 343.0 L 506.0 284.0 L 508.0 283.0 L 510.0 288.0 L 508.0 482.0 L 499.0 486.0 L 493.0 494.0 L 491.0 499.0 L 491.0 509.0 L 494.0 516.0 L 508.0 528.0 L 509.0 581.0 L 512.0 621.0 L 515.0 597.0 L 517.0 526.0 L 525.0 522.0 L 531.0 516.0 L 534.0 509.0 L 534.0 499.0 L 532.0 494.0 L 524.0 485.0 L 517.0 482.0 L 515.0 329.0 L 516.0 285.0 L 518.0 285.0 L 522.0 291.0 L 532.0 318.0 L 561.0 383.0 L 625.0 512.0 L 625.0 516.0 L 613.0 528.0 L 600.0 546.0 L 588.0 569.0 L 579.0 593.0 L 570.0 627.0 L 562.0 687.0 L 561.0 715.0 L 595.0 680.0 L 619.0 661.0 L 649.0 642.0 L 686.0 624.0 L 707.0 616.0 L 744.0 605.0 L 790.0 596.0 L 834.0 592.0 L 888.0 592.0 L 724.0 357.0 L 720.0 355.0 L 677.0 412.0 L 677.0 415.0 L 737.0 531.0 L 735.0 532.0 L 513.0 173.0 L 506.0 182.0 L 297.0 522.0 L 293.0 522.0 L 297.0 512.0 L 348.0 415.0 L 347.0 411.0 L 304.0 355.0 L 302.0 355.0 Z M 515.0 282.0 L 517.0 281.0 L 518.0 284.0 L 516.0 285.0 Z" fill="#0B55A6" fill-rule="evenodd"/>
</svg>
